<svg xmlns="http://www.w3.org/2000/svg" height="512pt" version="1.1" viewBox="-23 0 512 512" width="512pt">
<g id="surface1">
<path d="M 337.953125 230.601562 C 404.113281 239.886719 455.015625 296.65625 455.015625 365.378906 C 455.015625 440.503906 394.082031 501.4375 318.957031 501.4375 C 267.3125 501.4375 222.277344 472.625 199.335938 430.152344 C 188.878906 410.839844 182.902344 388.75 182.902344 365.273438 C 182.902344 290.148438 243.835938 229.214844 318.957031 229.214844 C 325.363281 229.320312 331.660156 229.75 337.953125 230.601562 Z M 337.953125 230.601562 " style=" stroke:none;fill-rule:nonzero;fill:rgb(99.607843%,85.882353%,25.490196%);fill-opacity:1;" />
<path d="M 337.953125 230.601562 C 331.765625 229.75 325.363281 229.320312 318.957031 229.320312 C 243.835938 229.320312 182.902344 290.253906 182.902344 365.378906 C 182.902344 388.855469 188.878906 410.945312 199.335938 430.257812 L 199.121094 430.367188 L 57.199219 430.367188 C 31.265625 430.367188 10.242188 409.34375 10.242188 383.414062 L 10.242188 57.730469 C 10.242188 31.800781 31.265625 10.777344 57.199219 10.777344 L 229.429688 10.777344 L 229.429688 88.464844 C 229.429688 108.523438 245.648438 124.746094 265.710938 124.746094 L 337.953125 124.746094 Z M 337.953125 230.601562 " style=" stroke:none;fill-rule:nonzero;fill:#0084ff;fill-opacity:1;" />
<path d="M 229.429688 10.777344 L 337.953125 124.746094 L 265.710938 124.746094 C 245.648438 124.746094 229.429688 108.523438 229.429688 88.464844 Z M 229.429688 10.777344 " style=" stroke:none;fill-rule:nonzero;fill:#0084ff;fill-opacity:1;" />
<path d="M 348.945312 221.640625 L 348.945312 124.746094 C 348.945312 121.96875 347.664062 119.410156 345.851562 117.382812 L 237.21875 3.308594 C 235.191406 1.175781 232.308594 0 229.429688 0 L 57.199219 0 C 25.398438 0 0 25.929688 0 57.730469 L 0 383.414062 C 0 415.214844 25.398438 440.71875 57.199219 440.71875 L 193.148438 440.71875 C 219.609375 485.535156 267.203125 512 318.960938 512 C 399.847656 512 465.6875 446.265625 465.6875 365.273438 C 465.6875 329.632812 452.988281 295.375 429.511719 268.59375 C 408.277344 244.476562 379.890625 228.042969 348.945312 221.640625 Z M 240.101562 37.457031 L 312.984375 114.179688 L 265.710938 114.179688 C 251.625 114.179688 240.097656 102.550781 240.097656 88.464844 L 240.097656 37.457031 Z M 21.34375 383.414062 L 21.34375 57.730469 C 21.34375 37.667969 37.242188 21.34375 57.199219 21.34375 L 218.757812 21.34375 L 218.757812 88.464844 C 218.757812 114.394531 239.78125 135.523438 265.710938 135.523438 L 327.605469 135.523438 L 327.605469 218.863281 C 324.402344 218.757812 321.839844 218.332031 319.066406 218.332031 C 281.824219 218.332031 247.570312 232.628906 221.746094 255.039062 L 86.222656 255.039062 C 80.355469 255.039062 75.550781 259.839844 75.550781 265.710938 C 75.550781 271.582031 80.351562 276.382812 86.222656 276.382812 L 201.898438 276.382812 C 194.320312 287.054688 188.023438 297.726562 183.117188 309.464844 L 86.222656 309.464844 C 80.355469 309.464844 75.550781 314.265625 75.550781 320.132812 C 75.550781 326.003906 80.351562 330.804688 86.222656 330.804688 L 176.179688 330.804688 C 173.511719 341.476562 172.125 353.320312 172.125 365.167969 C 172.125 383.839844 175.644531 402.300781 182.476562 419.375 L 57.199219 419.375 C 37.242188 419.375 21.34375 403.367188 21.34375 383.414062 Z M 318.960938 490.765625 C 272.96875 490.765625 230.601562 465.582031 208.621094 425.136719 C 198.695312 406.890625 193.46875 386.292969 193.46875 365.378906 C 193.46875 296.230469 249.703125 239.992188 318.851562 239.992188 C 324.722656 239.992188 330.589844 240.421875 336.351562 241.167969 C 366.019531 245.328125 393.335938 260.054688 413.183594 282.679688 C 433.246094 305.515625 444.238281 334.859375 444.238281 365.378906 C 444.34375 434.527344 388.109375 490.765625 318.960938 490.765625 Z M 318.960938 490.765625 " style=" stroke:none;fill-rule:nonzero;fill:rgb(3.137255%,21.960784%,38.823529%);fill-opacity:1;" />
<path d="M 86.222656 223.027344 L 194.320312 223.027344 C 200.191406 223.027344 204.992188 218.222656 204.992188 212.355469 C 204.992188 206.484375 200.191406 201.683594 194.320312 201.683594 L 86.222656 201.683594 C 80.355469 201.683594 75.550781 206.484375 75.550781 212.355469 C 75.550781 218.222656 80.355469 223.027344 86.222656 223.027344 Z M 86.222656 223.027344 " style=" stroke:none;fill-rule:nonzero;fill:rgb(3.137255%,21.960784%,38.823529%);fill-opacity:1;" />
<path d="M 362.070312 309.460938 C 367.9375 309.460938 372.742188 304.660156 372.742188 298.789062 C 372.742188 292.921875 367.941406 288.121094 362.070312 288.121094 L 275.421875 288.121094 C 269.550781 288.121094 264.75 292.921875 264.75 298.789062 C 264.75 304.660156 269.550781 309.460938 275.421875 309.460938 L 300.175781 309.460938 C 310.957031 309.460938 320.347656 316.929688 324.402344 325.46875 L 275.3125 325.46875 C 269.445312 325.46875 264.644531 330.269531 264.644531 336.140625 C 264.644531 342.007812 269.445312 346.8125 275.3125 346.8125 L 324.402344 346.8125 C 323.121094 350.011719 321.199219 352.574219 318.851562 354.921875 C 313.835938 359.9375 307.21875 362.820312 300.070312 362.820312 L 275.3125 362.820312 C 270.9375 362.820312 266.992188 365.59375 265.390625 369.648438 C 263.789062 373.703125 264.75 378.398438 267.953125 381.386719 L 329.949219 439.96875 C 331.976562 441.890625 334.644531 442.851562 337.3125 442.851562 C 340.195312 442.851562 342.96875 441.785156 345.101562 439.542969 C 349.15625 435.277344 348.945312 428.550781 344.675781 424.496094 L 302.203125 384.269531 C 314.261719 383.734375 325.46875 378.71875 334.109375 370.183594 C 340.621094 363.671875 344.890625 355.457031 346.917969 346.917969 L 362.175781 346.917969 C 368.042969 346.917969 372.847656 342.117188 372.847656 336.25 C 372.847656 330.378906 368.046875 325.578125 362.175781 325.578125 L 346.917969 325.578125 C 345.636719 320.242188 343.289062 314.90625 340.085938 309.570312 L 362.070312 309.570312 Z M 362.070312 309.460938 " style=" stroke:none;fill-rule:nonzero;fill:rgb(3.137255%,21.960784%,38.823529%);fill-opacity:1;" />
</g>
</svg>
